<?xml version="1.0" encoding="utf-8"?>
<!-- Generator: Adobe Illustrator 18.0.0, SVG Export Plug-In . SVG Version: 6.00 Build 0)  -->
<!DOCTYPE svg PUBLIC "-//W3C//DTD SVG 1.1//EN" "http://www.w3.org/Graphics/SVG/1.1/DTD/svg11.dtd">
<svg version="1.1" id="レイヤー_1" xmlns="http://www.w3.org/2000/svg" xmlns:xlink="http://www.w3.org/1999/xlink" x="0px"
	 y="0px" viewBox="439 576 322 38" enable-background="new 439 576 322 38" xml:space="preserve">
<g enable-background="new    ">
	<path d="M551.7,592c-0.7,0.8-1.4,1.6-2.1,2.5c-0.7,0.9-1.1,1.4-1.3,1.4c0,0-0.1,0-0.1,0c0,0-0.1-0.1-0.1-0.1c0-0.1,0.1-0.2,0.2-0.4
		c0.1-0.2,0.3-0.5,0.7-0.9l1.2-1.4c0.7-0.9,1.4-1.7,2-2.5c0.6-0.8,1-1.3,1.2-1.6l7.3-12.4l2.4-0.4l-11.4,19.8
		c-0.8,1.4-1.3,2.3-1.5,2.7c-0.2,0.5-0.3,0.8-0.3,1.1c0,0.2,0.1,0.4,0.2,0.5c0.1,0.2,0.3,0.2,0.5,0.2c0.4,0,1-0.2,1.5-0.6
		c0.6-0.4,1.5-1.4,2.9-2.9c0.3-0.3,0.6-0.7,1-1.2c0.4-0.5,0.6-0.7,0.7-0.7c0.1,0,0.1,0,0.2,0.1c0,0,0.1,0.1,0.1,0.1
		c0,0.1-0.1,0.3-0.3,0.6c-0.2,0.3-0.7,0.8-1.4,1.6c-1.2,1.4-2.2,2.3-2.8,2.8c-0.6,0.5-1.2,0.7-1.7,0.7c-0.6,0-1.1-0.2-1.5-0.7
		c-0.4-0.5-0.6-1.1-0.6-1.9c0-1.1,0.9-3.1,2.7-6L551.7,592z"/>
	<path d="M564.9,597.1c0,0,0.1,0,0.2,0c0.2,0.1,0.3,0.1,0.4,0.1c0.5,0,1-0.2,1.5-0.5c0.5-0.3,1.1-0.8,1.5-1.3l0.5-0.6
		c0,0,0.1-0.1,0.1-0.1c0.1,0,0.1,0,0.2,0c0,0,0.1,0,0.1,0.1c0,0,0,0.1,0,0.2c0,0.1,0,0.1,0,0.1c0,0,0,0,0,0.1l-0.4,0.5
		c-0.5,0.7-1.1,1.2-1.7,1.6c-0.7,0.4-1.3,0.5-2,0.5c-0.2,0-0.4,0-0.5,0c-0.1,0-0.2,0-0.3,0c-0.9,1-1.7,1.8-2.6,2.4
		c-0.9,0.6-1.6,0.8-2.3,0.8c-0.8,0-1.4-0.4-1.8-1.1c-0.4-0.7-0.6-1.8-0.6-3.1c0-0.3,0-0.5,0.1-0.8c0-0.3,0.1-0.6,0.2-1
		c-0.2,0.3-0.4,0.5-0.5,0.6c-0.1,0.1-0.2,0.2-0.3,0.2c-0.1,0-0.1,0-0.1,0c0,0,0-0.1,0-0.1c0-0.1,0.1-0.2,0.3-0.5
		c0.2-0.3,0.6-0.8,1.2-1.6c1.1-1.3,2.2-2.3,3.4-3.1c1.1-0.7,2.2-1.1,3.1-1.1c0.8,0,1.4,0.3,1.9,0.8c0.5,0.5,0.7,1.2,0.7,2.1
		c0,0.7-0.2,1.4-0.5,2.2C566.1,595.2,565.6,596.1,564.9,597.1z M558.7,598.9c0,0.5,0.1,0.8,0.3,1.1c0.2,0.2,0.5,0.4,0.9,0.4
		c0.4,0,0.9-0.2,1.6-0.7c0.6-0.4,1.3-1,1.9-1.7c0.8-0.9,1.4-2,1.9-3c0.5-1.1,0.7-2,0.7-2.9c0-0.6-0.1-1.1-0.4-1.5
		c-0.2-0.4-0.6-0.5-1-0.5c-0.6,0-1.1,0.3-1.8,0.8c-0.6,0.5-1.3,1.4-2,2.5c-0.7,1-1.2,2-1.5,3C558.9,597.3,558.7,598.2,558.7,598.9z"
		/>
	<path d="M578.8,592.2l1.5-2.4l2.3-0.2c-1.1,2-2.2,3.9-3.2,5.8c-1,1.9-1.9,3.7-2.7,5.5c1.5-1.1,3.5-3,6-5.8c0.1,0,0.1,0,0.1,0.1
		c0,0,0,0.1,0,0.1c0,0.4-0.7,1.3-2,2.7c-1.4,1.4-2.9,2.7-4.7,3.9c-1.8,3.8-3.6,6.7-5.2,8.7c-1.7,2-3.1,3.1-4.4,3.1
		c-0.6,0-1.1-0.2-1.4-0.5c-0.3-0.3-0.5-0.8-0.5-1.5c0-1.3,0.8-2.7,2.3-4.3c1.5-1.5,4-3.5,7.6-5.7l1.9-4.4c-1.1,1.4-2,2.3-2.8,3
		c-0.8,0.6-1.5,0.9-2.2,0.9c-0.7,0-1.2-0.4-1.6-1.1c-0.4-0.7-0.6-1.7-0.6-3c0-0.3,0-0.6,0.1-0.9c0-0.3,0.1-0.6,0.2-0.9
		c-0.1,0.3-0.3,0.4-0.4,0.6c-0.1,0.1-0.2,0.2-0.3,0.2c-0.1,0-0.1,0-0.2,0c0,0,0-0.1,0-0.1c0-0.1,0.2-0.4,0.5-0.8
		c0.3-0.4,0.7-0.9,1.3-1.5c1.2-1.3,2.3-2.2,3.5-2.9c1.2-0.7,2.2-1,3.2-1c0.6,0,1.1,0.2,1.4,0.5c0.4,0.3,0.5,0.8,0.5,1.4
		c0,0.1,0,0.3,0,0.4C578.9,591.8,578.9,592,578.8,592.2z M574.2,602.4c-2.7,1.7-4.8,3.4-6.3,5c-1.5,1.6-2.2,3-2.2,4.2
		c0,0.4,0.1,0.8,0.3,1c0.2,0.2,0.4,0.3,0.8,0.3c0.9,0,2-0.8,3.1-2.5C571,608.9,572.5,606.2,574.2,602.4z M570.9,599
		c0,0.4,0.1,0.7,0.2,0.9c0.2,0.2,0.4,0.3,0.7,0.3c0.4,0,0.9-0.2,1.5-0.7c0.6-0.4,1.2-1.1,1.9-1.9c1-1.2,1.8-2.4,2.3-3.5
		c0.5-1.1,0.8-2.1,0.8-3c0-0.4-0.1-0.7-0.4-0.9c-0.2-0.2-0.5-0.4-0.9-0.4c-0.6,0-1.3,0.3-2,0.9c-0.7,0.6-1.4,1.4-2.1,2.4
		c-0.7,1-1.2,2.1-1.6,3.1C571.1,597.5,570.9,598.3,570.9,599z"/>
	<path d="M590.9,597.1c0,0,0.1,0,0.2,0c0.2,0.1,0.3,0.1,0.4,0.1c0.5,0,1-0.2,1.5-0.5c0.5-0.3,1.1-0.8,1.5-1.3l0.5-0.6
		c0,0,0.1-0.1,0.1-0.1c0.1,0,0.1,0,0.2,0c0,0,0.1,0,0.1,0.1c0,0,0,0.1,0,0.2c0,0.1,0,0.1,0,0.1c0,0,0,0,0,0.1l-0.4,0.5
		c-0.5,0.7-1.1,1.2-1.7,1.6c-0.7,0.4-1.3,0.5-2,0.5c-0.2,0-0.4,0-0.5,0c-0.1,0-0.2,0-0.3,0c-0.9,1-1.7,1.8-2.6,2.4
		c-0.9,0.6-1.6,0.8-2.3,0.8c-0.8,0-1.4-0.4-1.8-1.1c-0.4-0.7-0.6-1.8-0.6-3.1c0-0.3,0-0.5,0.1-0.8c0-0.3,0.1-0.6,0.2-1
		c-0.2,0.3-0.4,0.5-0.5,0.6c-0.1,0.1-0.2,0.2-0.3,0.2c-0.1,0-0.1,0-0.1,0c0,0,0-0.1,0-0.1c0-0.1,0.1-0.2,0.3-0.5
		c0.2-0.3,0.6-0.8,1.2-1.6c1.1-1.3,2.2-2.3,3.4-3.1c1.1-0.7,2.2-1.1,3.1-1.1c0.8,0,1.4,0.3,1.9,0.8c0.5,0.5,0.7,1.2,0.7,2.1
		c0,0.7-0.2,1.4-0.5,2.2C592.1,595.2,591.6,596.1,590.9,597.1z M584.7,598.9c0,0.5,0.1,0.8,0.3,1.1c0.2,0.2,0.5,0.4,0.9,0.4
		c0.4,0,0.9-0.2,1.6-0.7c0.6-0.4,1.3-1,1.9-1.7c0.8-0.9,1.4-2,1.9-3c0.5-1.1,0.7-2,0.7-2.9c0-0.6-0.1-1.1-0.4-1.5
		c-0.2-0.4-0.6-0.5-1-0.5c-0.6,0-1.1,0.3-1.8,0.8c-0.6,0.5-1.3,1.4-2,2.5c-0.7,1-1.2,2-1.5,3C584.8,597.3,584.7,598.2,584.7,598.9z"
		/>
	<path d="M605.8,592c-0.7,0.7-1.4,1.6-2.1,2.5c-0.7,0.9-1.2,1.4-1.3,1.4c0,0-0.1,0-0.1,0c0,0,0,0,0-0.1c0-0.3,0.7-1.2,2.2-2.8
		c1.4-1.6,2.5-2.9,3.1-4l1.6-2.6h-1.8l0.3-0.6h1.8l2.3-3.9l2.4-0.2l-2.4,4.1h4.3l-0.3,0.6h-4.3l-5.5,9.7c-0.6,1-1,1.9-1.3,2.5
		c-0.3,0.6-0.4,1.1-0.4,1.3c0,0.2,0.1,0.4,0.2,0.5c0.1,0.2,0.3,0.2,0.4,0.2c0.4,0,1-0.2,1.6-0.8c0.6-0.5,1.5-1.4,2.7-2.8
		c0.3-0.3,0.6-0.7,0.9-1.1c0.4-0.5,0.7-0.8,0.8-0.8c0.1,0,0.1,0,0.2,0.1c0,0,0.1,0.1,0.1,0.1c0,0.1-0.1,0.3-0.3,0.6
		c-0.2,0.3-0.7,0.8-1.4,1.6c-1.2,1.4-2.2,2.3-2.8,2.8c-0.6,0.5-1.2,0.7-1.7,0.7c-0.6,0-1.1-0.2-1.5-0.7c-0.4-0.5-0.6-1.1-0.6-1.9
		c0-1,0.9-2.9,2.6-5.8C605.5,592.4,605.7,592.1,605.8,592z"/>
	<path d="M621.4,595.4c-1.4,1.7-2.6,3-3.7,3.9s-1.9,1.3-2.6,1.3c-0.4,0-0.8-0.2-1.1-0.7c-0.3-0.5-0.5-1-0.5-1.7
		c0-1.2,0.6-2.7,1.8-4.4c0.1-0.1,0.1-0.2,0.2-0.3c0.5-0.8,0.9-1.4,1.1-1.9c0.2-0.5,0.3-0.8,0.3-1.1c0-0.2,0-0.3-0.1-0.4
		c-0.1-0.1-0.2-0.1-0.4-0.1c-0.4,0-0.9,0.3-1.5,0.9c-0.6,0.6-1.6,1.6-2.8,3c-0.2,0.3-0.5,0.6-0.9,1.1c-0.4,0.6-0.7,0.8-0.9,0.8
		c0,0-0.1,0-0.1,0c0,0-0.1-0.1-0.1-0.1c0-0.1,0.1-0.2,0.2-0.4c0.1-0.2,0.3-0.5,0.7-0.9l1.2-1.4c1.3-1.5,2.2-2.5,2.8-2.9
		c0.6-0.4,1.1-0.7,1.7-0.7c0.5,0,0.9,0.2,1.2,0.6c0.3,0.4,0.4,0.9,0.4,1.6c0,0.5-0.1,1-0.3,1.6c-0.2,0.5-0.6,1.3-1.2,2.3l-0.2,0.4
		c-1.2,2-1.8,3.2-1.8,3.6c0,0.2,0.1,0.4,0.2,0.6c0.1,0.2,0.3,0.2,0.4,0.2c0.7,0,2-1,3.8-3c1.8-2,3.4-4.5,5-7.4l2.3-0.2
		c-1.1,2-2.2,3.9-3.2,5.8c-1,1.9-1.9,3.7-2.7,5.5c1.5-1.1,2.9-2.3,4.1-3.7c1.2-1.4,1.9-2.1,1.9-2.1c0,0,0.1,0,0.1,0.1
		c0,0,0.1,0.1,0.1,0.1c0,0.4-0.7,1.3-2,2.7c-1.4,1.4-2.9,2.7-4.7,3.9c-1.8,3.8-3.6,6.7-5.2,8.7c-1.7,2-3.1,3.1-4.4,3.1
		c-0.6,0-1.1-0.2-1.4-0.5c-0.3-0.3-0.5-0.8-0.5-1.5c0-1.3,0.8-2.7,2.3-4.3c1.5-1.5,4.1-3.5,7.6-5.7L621.4,595.4z M618.1,602.4
		c-2.7,1.7-4.8,3.4-6.3,5c-1.5,1.6-2.2,3-2.2,4.2c0,0.4,0.1,0.8,0.3,1c0.2,0.2,0.4,0.3,0.8,0.3c0.9,0,1.9-0.8,3-2.3
		C614.7,609.2,616.2,606.5,618.1,602.4z"/>
	<path d="M621.8,611.2l-2.4,0.3l10.8-20l-3,3.5c-0.2,0.2-0.4,0.4-0.5,0.6c-0.2,0.1-0.3,0.2-0.3,0.2c-0.1,0-0.1,0-0.2,0
		c0,0,0-0.1,0-0.1c0-0.1,0.9-1.1,2.6-3.2c1.8-2.1,3.4-4.4,4.8-7l2.2-3.7l2.2-0.2l-7.9,14.1c2-2.4,3.5-4.1,4.5-5
		c1-0.9,1.7-1.3,2.3-1.3c0.4,0,0.8,0.2,1,0.6c0.3,0.4,0.4,0.8,0.4,1.4c0,1-0.6,2.4-1.8,4.2c-0.2,0.3-0.3,0.5-0.5,0.7
		c-0.7,1-1.1,1.7-1.3,2.2c-0.2,0.5-0.4,0.9-0.4,1.2c0,0.2,0,0.4,0.1,0.5c0.1,0.1,0.2,0.2,0.5,0.2c0.3,0,0.8-0.3,1.5-0.9
		c0.7-0.6,1.5-1.4,2.5-2.6c0.3-0.3,0.6-0.7,1-1.2c0.4-0.5,0.6-0.7,0.7-0.7c0.1,0,0.1,0,0.1,0.1c0,0,0.1,0.1,0.1,0.1
		c0,0.1-0.1,0.3-0.3,0.6c-0.2,0.3-0.7,0.9-1.5,1.7c-1,1.1-1.9,2-2.6,2.6c-0.7,0.6-1.2,0.8-1.6,0.8c-0.5,0-1-0.3-1.3-0.8
		c-0.3-0.5-0.5-1.2-0.5-2.1c0-0.6,0.1-1.3,0.4-1.9c0.3-0.7,0.9-1.7,1.9-3c0.1-0.2,0.3-0.4,0.6-0.8c0.7-1,1.1-1.6,1.1-1.9
		c0-0.2-0.1-0.3-0.1-0.4c-0.1-0.1-0.2-0.1-0.3-0.1c-0.7,0-2.1,1.2-4.2,3.6c-2.1,2.4-4,5.2-5.8,8.6L621.8,611.2z"/>
	<path d="M641.2,595c-0.2,0.3-0.4,0.5-0.5,0.6c-0.1,0.1-0.2,0.2-0.3,0.2c-0.1,0-0.1,0-0.1,0c0,0,0-0.1,0-0.1c0-0.1,0.1-0.3,0.4-0.7
		c0.3-0.3,0.6-0.8,1.1-1.3c1.1-1.4,2.3-2.4,3.4-3.1c1.2-0.7,2.3-1.1,3.3-1.1c0.6,0,1.1,0.2,1.5,0.5c0.4,0.3,0.6,0.8,0.6,1.4
		c0,1.1-0.7,2.2-2,3.2c-1.4,1-3.2,1.8-5.4,2.4c-0.1,0.5-0.1,0.8-0.1,1.1c0,0.2,0,0.4,0,0.6c0,0.6,0.1,1.1,0.4,1.4
		c0.3,0.3,0.6,0.5,1.1,0.5c0.6,0,1.3-0.2,2-0.7c0.7-0.5,1.6-1.2,2.6-2.3c0.4-0.4,0.8-1,1.3-1.5c0.5-0.6,0.7-0.9,0.8-0.9
		c0.1,0,0.1,0,0.2,0.1c0,0,0.1,0.1,0.1,0.1c0,0.1-0.1,0.3-0.3,0.6c-0.2,0.3-0.7,0.9-1.5,1.8c-1.1,1.2-2,2-2.9,2.5
		c-0.8,0.5-1.6,0.8-2.4,0.8c-0.9,0-1.7-0.4-2.3-1.2c-0.6-0.8-0.9-1.9-0.9-3.1c0-0.3,0-0.5,0.1-0.8
		C641.1,595.6,641.1,595.3,641.2,595z M643.2,596.3c1.7-0.4,3.1-1.2,4.3-2.3c1.2-1.2,1.8-2.2,1.8-3.3c0-0.2-0.1-0.4-0.2-0.6
		c-0.1-0.2-0.3-0.2-0.5-0.2c-0.8,0-1.8,0.6-2.8,1.9C644.6,593,643.8,594.5,643.2,596.3z"/>
</g>
<g enable-background="new    ">
	<path d="M661.5,592c-0.7,0.8-1.4,1.6-2.1,2.5c-0.7,0.9-1.1,1.4-1.3,1.4c0,0-0.1,0-0.1,0c0,0-0.1-0.1-0.1-0.1c0-0.1,0.1-0.2,0.2-0.4
		c0.1-0.2,0.3-0.5,0.7-0.9l1.2-1.4c0.7-0.9,1.4-1.7,2-2.5c0.6-0.8,1-1.3,1.2-1.6l7.3-12.4l2.4-0.4l-11.4,19.8
		c-0.8,1.4-1.3,2.3-1.5,2.7c-0.2,0.5-0.3,0.8-0.3,1.1c0,0.2,0.1,0.4,0.2,0.5c0.1,0.2,0.3,0.2,0.5,0.2c0.4,0,1-0.2,1.5-0.6
		c0.6-0.4,1.5-1.4,2.9-2.9c0.3-0.3,0.6-0.7,1-1.2c0.4-0.5,0.6-0.7,0.7-0.7c0.1,0,0.1,0,0.2,0.1c0,0,0.1,0.1,0.1,0.1
		c0,0.1-0.1,0.3-0.3,0.6c-0.2,0.3-0.7,0.8-1.4,1.6c-1.2,1.4-2.2,2.3-2.8,2.8c-0.6,0.5-1.2,0.7-1.7,0.7c-0.6,0-1.1-0.2-1.5-0.7
		c-0.4-0.5-0.6-1.1-0.6-1.9c0-1.1,0.9-3.1,2.7-6L661.5,592z"/>
	<path d="M674.7,597.1c0,0,0.1,0,0.2,0c0.2,0.1,0.3,0.1,0.4,0.1c0.5,0,1-0.2,1.5-0.5c0.5-0.3,1.1-0.8,1.5-1.3l0.5-0.6
		c0,0,0.1-0.1,0.1-0.1c0.1,0,0.1,0,0.2,0c0,0,0.1,0,0.1,0.1c0,0,0,0.1,0,0.2c0,0.1,0,0.1,0,0.1c0,0,0,0,0,0.1l-0.4,0.5
		c-0.5,0.7-1.1,1.2-1.7,1.6c-0.7,0.4-1.3,0.5-2,0.5c-0.2,0-0.4,0-0.5,0c-0.1,0-0.2,0-0.3,0c-0.9,1-1.7,1.8-2.6,2.4
		c-0.9,0.6-1.6,0.8-2.3,0.8c-0.8,0-1.4-0.4-1.8-1.1c-0.4-0.7-0.6-1.8-0.6-3.1c0-0.3,0-0.5,0.1-0.8c0-0.3,0.1-0.6,0.2-1
		c-0.2,0.3-0.4,0.5-0.5,0.6c-0.1,0.1-0.2,0.2-0.3,0.2c-0.1,0-0.1,0-0.1,0c0,0,0-0.1,0-0.1c0-0.1,0.1-0.2,0.3-0.5
		c0.2-0.3,0.6-0.8,1.2-1.6c1.1-1.3,2.2-2.3,3.4-3.1c1.1-0.7,2.2-1.1,3.1-1.1c0.8,0,1.4,0.3,1.9,0.8c0.5,0.5,0.7,1.2,0.7,2.1
		c0,0.7-0.2,1.4-0.5,2.2C675.9,595.2,675.4,596.1,674.7,597.1z M668.4,598.9c0,0.5,0.1,0.8,0.3,1.1c0.2,0.2,0.5,0.4,0.9,0.4
		c0.4,0,0.9-0.2,1.6-0.7c0.6-0.4,1.3-1,1.9-1.7c0.8-0.9,1.4-2,1.9-3c0.5-1.1,0.7-2,0.7-2.9c0-0.6-0.1-1.1-0.4-1.5
		c-0.2-0.4-0.6-0.5-1-0.5c-0.6,0-1.1,0.3-1.8,0.8c-0.6,0.5-1.3,1.4-2,2.5c-0.7,1-1.2,2-1.5,3C668.6,597.3,668.4,598.2,668.4,598.9z"
		/>
	<path d="M688.6,592.2l1.5-2.4l2.3-0.2c-1.1,2-2.2,3.9-3.2,5.8c-1,1.9-1.9,3.7-2.7,5.5c1.5-1.1,3.5-3,6-5.8c0.1,0,0.1,0,0.1,0.1
		c0,0,0,0.1,0,0.1c0,0.4-0.7,1.3-2,2.7c-1.4,1.4-2.9,2.7-4.7,3.9c-1.8,3.8-3.6,6.7-5.2,8.7c-1.7,2-3.1,3.1-4.4,3.1
		c-0.6,0-1.1-0.2-1.4-0.5c-0.3-0.3-0.5-0.8-0.5-1.5c0-1.3,0.8-2.7,2.3-4.3c1.5-1.5,4-3.5,7.6-5.7l1.9-4.4c-1.1,1.4-2,2.3-2.8,3
		c-0.8,0.6-1.5,0.9-2.2,0.9c-0.7,0-1.2-0.4-1.6-1.1c-0.4-0.7-0.6-1.7-0.6-3c0-0.3,0-0.6,0.1-0.9c0-0.3,0.1-0.6,0.2-0.9
		c-0.1,0.3-0.3,0.4-0.4,0.6c-0.1,0.1-0.2,0.2-0.3,0.2c-0.1,0-0.1,0-0.2,0c0,0,0-0.1,0-0.1c0-0.1,0.2-0.4,0.5-0.8
		c0.3-0.4,0.7-0.9,1.3-1.5c1.2-1.3,2.3-2.2,3.5-2.9c1.2-0.7,2.2-1,3.2-1c0.6,0,1.1,0.2,1.4,0.5c0.4,0.3,0.5,0.8,0.5,1.4
		c0,0.1,0,0.3,0,0.4C688.7,591.8,688.7,592,688.6,592.2z M683.9,602.4c-2.7,1.7-4.8,3.4-6.3,5c-1.5,1.6-2.2,3-2.2,4.2
		c0,0.4,0.1,0.8,0.3,1c0.2,0.2,0.4,0.3,0.8,0.3c0.9,0,2-0.8,3.1-2.5C680.8,608.9,682.2,606.2,683.9,602.4z M680.7,599
		c0,0.4,0.1,0.7,0.2,0.9c0.2,0.2,0.4,0.3,0.7,0.3c0.4,0,0.9-0.2,1.5-0.7c0.6-0.4,1.2-1.1,1.9-1.9c1-1.2,1.8-2.4,2.3-3.5
		c0.5-1.1,0.8-2.1,0.8-3c0-0.4-0.1-0.7-0.4-0.9c-0.2-0.2-0.5-0.4-0.9-0.4c-0.6,0-1.3,0.3-2,0.9c-0.7,0.6-1.4,1.4-2.1,2.4
		c-0.7,1-1.2,2.1-1.6,3.1C680.9,597.5,680.7,598.3,680.7,599z"/>
	<path d="M700.7,597.1c0,0,0.1,0,0.2,0c0.2,0.1,0.3,0.1,0.4,0.1c0.5,0,1-0.2,1.5-0.5c0.5-0.3,1.1-0.8,1.5-1.3l0.5-0.6
		c0,0,0.1-0.1,0.1-0.1c0.1,0,0.1,0,0.2,0c0,0,0.1,0,0.1,0.1c0,0,0,0.1,0,0.2c0,0.1,0,0.1,0,0.1c0,0,0,0,0,0.1l-0.4,0.5
		c-0.5,0.7-1.1,1.2-1.7,1.6c-0.7,0.4-1.3,0.5-2,0.5c-0.2,0-0.4,0-0.5,0c-0.1,0-0.2,0-0.3,0c-0.9,1-1.7,1.8-2.6,2.4
		c-0.9,0.6-1.6,0.8-2.3,0.8c-0.8,0-1.4-0.4-1.8-1.1c-0.4-0.7-0.6-1.8-0.6-3.1c0-0.3,0-0.5,0.1-0.8c0-0.3,0.1-0.6,0.2-1
		c-0.2,0.3-0.4,0.5-0.5,0.6c-0.1,0.1-0.2,0.2-0.3,0.2c-0.1,0-0.1,0-0.1,0c0,0,0-0.1,0-0.1c0-0.1,0.1-0.2,0.3-0.5
		c0.2-0.3,0.6-0.8,1.2-1.6c1.1-1.3,2.2-2.3,3.4-3.1c1.1-0.7,2.2-1.1,3.1-1.1c0.8,0,1.4,0.3,1.9,0.8c0.5,0.5,0.7,1.2,0.7,2.1
		c0,0.7-0.2,1.4-0.5,2.2C701.9,595.2,701.4,596.1,700.7,597.1z M694.4,598.9c0,0.5,0.1,0.8,0.3,1.1c0.2,0.2,0.5,0.4,0.9,0.4
		c0.4,0,0.9-0.2,1.6-0.7c0.6-0.4,1.3-1,1.9-1.7c0.8-0.9,1.4-2,1.9-3c0.5-1.1,0.7-2,0.7-2.9c0-0.6-0.1-1.1-0.4-1.5
		c-0.2-0.4-0.6-0.5-1-0.5c-0.6,0-1.1,0.3-1.8,0.8c-0.6,0.5-1.3,1.4-2,2.5c-0.7,1-1.2,2-1.5,3C694.6,597.3,694.4,598.2,694.4,598.9z"
		/>
	<path d="M715.6,592c-0.7,0.7-1.4,1.6-2.1,2.5c-0.7,0.9-1.2,1.4-1.3,1.4c0,0-0.1,0-0.1,0c0,0,0,0,0-0.1c0-0.3,0.7-1.2,2.2-2.8
		c1.4-1.6,2.5-2.9,3.1-4l1.6-2.6h-1.8l0.3-0.6h1.8l2.3-3.9l2.4-0.2l-2.4,4.1h4.3l-0.3,0.6h-4.3l-5.5,9.7c-0.6,1-1,1.9-1.3,2.5
		c-0.3,0.6-0.4,1.1-0.4,1.3c0,0.2,0.1,0.4,0.2,0.5c0.1,0.2,0.3,0.2,0.4,0.2c0.4,0,1-0.2,1.6-0.8c0.6-0.5,1.5-1.4,2.7-2.8
		c0.3-0.3,0.6-0.7,0.9-1.1c0.4-0.5,0.7-0.8,0.8-0.8c0.1,0,0.1,0,0.2,0.1c0,0,0.1,0.1,0.1,0.1c0,0.1-0.1,0.3-0.3,0.6
		c-0.2,0.3-0.7,0.8-1.4,1.6c-1.2,1.4-2.2,2.3-2.8,2.8c-0.6,0.5-1.2,0.7-1.7,0.7c-0.6,0-1.1-0.2-1.5-0.7c-0.4-0.5-0.6-1.1-0.6-1.9
		c0-1,0.9-2.9,2.6-5.8C715.3,592.4,715.5,592.1,715.6,592z"/>
	<path d="M731.2,595.4c-1.4,1.7-2.6,3-3.7,3.9s-1.9,1.3-2.6,1.3c-0.4,0-0.8-0.2-1.1-0.7c-0.3-0.5-0.5-1-0.5-1.7
		c0-1.2,0.6-2.7,1.8-4.4c0.1-0.1,0.1-0.2,0.2-0.3c0.5-0.8,0.9-1.4,1.1-1.9c0.2-0.5,0.3-0.8,0.3-1.1c0-0.2,0-0.3-0.1-0.4
		c-0.1-0.1-0.2-0.1-0.4-0.1c-0.4,0-0.9,0.3-1.5,0.9c-0.6,0.6-1.6,1.6-2.8,3c-0.2,0.3-0.5,0.6-0.9,1.1c-0.4,0.6-0.7,0.8-0.9,0.8
		c0,0-0.1,0-0.1,0c0,0-0.1-0.1-0.1-0.1c0-0.1,0.1-0.2,0.2-0.4c0.1-0.2,0.3-0.5,0.7-0.9l1.2-1.4c1.3-1.5,2.2-2.5,2.8-2.9
		c0.6-0.4,1.1-0.7,1.7-0.7c0.5,0,0.9,0.2,1.2,0.6c0.3,0.4,0.4,0.9,0.4,1.6c0,0.5-0.1,1-0.3,1.6c-0.2,0.5-0.6,1.3-1.2,2.3l-0.2,0.4
		c-1.2,2-1.8,3.2-1.8,3.6c0,0.2,0.1,0.4,0.2,0.6c0.1,0.2,0.3,0.2,0.4,0.2c0.7,0,2-1,3.8-3c1.8-2,3.4-4.5,5-7.4l2.3-0.2
		c-1.1,2-2.2,3.9-3.2,5.8c-1,1.9-1.9,3.7-2.7,5.5c1.5-1.1,2.9-2.3,4.1-3.7c1.2-1.4,1.9-2.1,1.9-2.1c0,0,0.1,0,0.1,0.1
		c0,0,0.1,0.1,0.1,0.1c0,0.4-0.7,1.3-2,2.7c-1.4,1.4-2.9,2.7-4.7,3.9c-1.8,3.8-3.6,6.7-5.2,8.7c-1.7,2-3.1,3.1-4.4,3.1
		c-0.6,0-1.1-0.2-1.4-0.5c-0.3-0.3-0.5-0.8-0.5-1.5c0-1.3,0.8-2.7,2.3-4.3c1.5-1.5,4.1-3.5,7.6-5.7L731.2,595.4z M727.9,602.4
		c-2.7,1.7-4.8,3.4-6.3,5c-1.5,1.6-2.2,3-2.2,4.2c0,0.4,0.1,0.8,0.3,1c0.2,0.2,0.4,0.3,0.8,0.3c0.9,0,1.9-0.8,3-2.3
		C724.5,609.2,726,606.5,727.9,602.4z"/>
	<path d="M731.6,611.2l-2.4,0.3l10.8-20l-3,3.5c-0.2,0.2-0.4,0.4-0.5,0.6c-0.2,0.1-0.3,0.2-0.3,0.2c-0.1,0-0.1,0-0.2,0
		c0,0,0-0.1,0-0.1c0-0.1,0.9-1.1,2.6-3.2c1.8-2.1,3.4-4.4,4.8-7l2.2-3.7l2.2-0.2l-7.9,14.1c2-2.4,3.5-4.1,4.5-5
		c1-0.9,1.7-1.3,2.3-1.3c0.4,0,0.8,0.2,1,0.6c0.3,0.4,0.4,0.8,0.4,1.4c0,1-0.6,2.4-1.8,4.2c-0.2,0.3-0.3,0.5-0.5,0.7
		c-0.7,1-1.1,1.7-1.3,2.2c-0.2,0.5-0.4,0.9-0.4,1.2c0,0.2,0,0.4,0.1,0.5c0.1,0.1,0.2,0.2,0.5,0.2c0.3,0,0.8-0.3,1.5-0.9
		c0.7-0.6,1.5-1.4,2.5-2.6c0.3-0.3,0.6-0.7,1-1.2c0.4-0.5,0.6-0.7,0.7-0.7c0.1,0,0.1,0,0.1,0.1s0.1,0.1,0.1,0.1
		c0,0.1-0.1,0.3-0.3,0.6c-0.2,0.3-0.7,0.9-1.5,1.7c-1,1.1-1.9,2-2.6,2.6c-0.7,0.6-1.2,0.8-1.6,0.8c-0.5,0-1-0.3-1.3-0.8
		c-0.3-0.5-0.5-1.2-0.5-2.1c0-0.6,0.1-1.3,0.4-1.9c0.3-0.7,0.9-1.7,1.9-3c0.1-0.2,0.3-0.4,0.6-0.8c0.7-1,1.1-1.6,1.1-1.9
		c0-0.2-0.1-0.3-0.1-0.4c-0.1-0.1-0.2-0.1-0.3-0.1c-0.7,0-2.1,1.2-4.2,3.6c-2.1,2.4-4,5.2-5.8,8.6L731.6,611.2z"/>
	<path d="M751,595c-0.2,0.3-0.4,0.5-0.5,0.6c-0.1,0.1-0.2,0.2-0.3,0.2c-0.1,0-0.1,0-0.1,0c0,0,0-0.1,0-0.1c0-0.1,0.1-0.3,0.4-0.7
		c0.3-0.3,0.6-0.8,1.1-1.3c1.1-1.4,2.3-2.4,3.4-3.1c1.2-0.7,2.3-1.1,3.3-1.1c0.6,0,1.1,0.2,1.5,0.5c0.4,0.3,0.6,0.8,0.6,1.4
		c0,1.1-0.7,2.2-2,3.2c-1.4,1-3.2,1.8-5.4,2.4c-0.1,0.5-0.1,0.8-0.1,1.1c0,0.2,0,0.4,0,0.6c0,0.6,0.1,1.1,0.4,1.4
		c0.3,0.3,0.6,0.5,1.1,0.5c0.6,0,1.3-0.2,2-0.7c0.7-0.5,1.6-1.2,2.6-2.3c0.4-0.4,0.8-1,1.3-1.5c0.5-0.6,0.7-0.9,0.8-0.9
		c0.1,0,0.1,0,0.2,0.1c0,0,0.1,0.1,0.1,0.1c0,0.1-0.1,0.3-0.3,0.6c-0.2,0.3-0.7,0.9-1.5,1.8c-1.1,1.2-2,2-2.9,2.5
		c-0.8,0.5-1.6,0.8-2.4,0.8c-0.9,0-1.7-0.4-2.3-1.2c-0.6-0.8-0.9-1.9-0.9-3.1c0-0.3,0-0.5,0.1-0.8C750.8,595.6,750.9,595.3,751,595z
		 M753,596.3c1.7-0.4,3.1-1.2,4.3-2.3c1.2-1.2,1.8-2.2,1.8-3.3c0-0.2-0.1-0.4-0.2-0.6c-0.1-0.2-0.3-0.2-0.5-0.2
		c-0.8,0-1.8,0.6-2.8,1.9C754.4,593,753.6,594.5,753,596.3z"/>
</g>
<g enable-background="new    ">
	<path d="M442.5,592c-0.7,0.8-1.4,1.6-2.1,2.5c-0.7,0.9-1.1,1.4-1.3,1.4c0,0-0.1,0-0.1,0c0,0-0.1-0.1-0.1-0.1c0-0.1,0.1-0.2,0.2-0.4
		c0.1-0.2,0.3-0.5,0.7-0.9l1.2-1.4c0.7-0.9,1.4-1.7,2-2.5c0.6-0.8,1-1.3,1.2-1.6l7.3-12.4l2.4-0.4l-11.4,19.8
		c-0.8,1.4-1.3,2.3-1.5,2.7c-0.2,0.5-0.3,0.8-0.3,1.1c0,0.2,0.1,0.4,0.2,0.5c0.1,0.2,0.3,0.2,0.5,0.2c0.4,0,1-0.2,1.5-0.6
		c0.6-0.4,1.5-1.4,2.9-2.9c0.3-0.3,0.6-0.7,1-1.2c0.4-0.5,0.6-0.7,0.7-0.7c0.1,0,0.1,0,0.2,0.1c0,0,0.1,0.1,0.1,0.1
		c0,0.1-0.1,0.3-0.3,0.6c-0.2,0.3-0.7,0.8-1.4,1.6c-1.2,1.4-2.2,2.3-2.8,2.8c-0.6,0.5-1.2,0.7-1.7,0.7c-0.6,0-1.1-0.2-1.5-0.7
		c-0.4-0.5-0.6-1.1-0.6-1.9c0-1.1,0.9-3.1,2.7-6L442.5,592z"/>
	<path d="M455.7,597.1c0,0,0.1,0,0.2,0c0.2,0.1,0.3,0.1,0.4,0.1c0.5,0,1-0.2,1.5-0.5c0.5-0.3,1.1-0.8,1.5-1.3l0.5-0.6
		c0,0,0.1-0.1,0.1-0.1c0.1,0,0.1,0,0.2,0c0,0,0.1,0,0.1,0.1c0,0,0,0.1,0,0.2c0,0.1,0,0.1,0,0.1c0,0,0,0,0,0.1l-0.4,0.5
		c-0.5,0.7-1.1,1.2-1.7,1.6c-0.7,0.4-1.3,0.5-2,0.5c-0.2,0-0.4,0-0.5,0c-0.1,0-0.2,0-0.3,0c-0.9,1-1.7,1.8-2.6,2.4
		c-0.9,0.6-1.6,0.8-2.3,0.8c-0.8,0-1.4-0.4-1.8-1.1c-0.4-0.7-0.6-1.8-0.6-3.1c0-0.3,0-0.5,0.1-0.8c0-0.3,0.1-0.6,0.2-1
		c-0.2,0.3-0.4,0.5-0.5,0.6c-0.1,0.1-0.2,0.2-0.3,0.2c-0.1,0-0.1,0-0.1,0c0,0,0-0.1,0-0.1c0-0.1,0.1-0.2,0.3-0.5
		c0.2-0.3,0.6-0.8,1.2-1.6c1.1-1.3,2.2-2.3,3.4-3.1c1.1-0.7,2.2-1.1,3.1-1.1c0.8,0,1.4,0.3,1.9,0.8c0.5,0.5,0.7,1.2,0.7,2.1
		c0,0.7-0.2,1.4-0.5,2.2C456.9,595.2,456.4,596.1,455.7,597.1z M449.5,598.9c0,0.5,0.1,0.8,0.3,1.1c0.2,0.2,0.5,0.4,0.9,0.4
		c0.4,0,0.9-0.2,1.6-0.7c0.6-0.4,1.3-1,1.9-1.7c0.8-0.9,1.4-2,1.9-3c0.5-1.1,0.7-2,0.7-2.9c0-0.6-0.1-1.1-0.4-1.5
		c-0.2-0.4-0.6-0.5-1-0.5c-0.6,0-1.1,0.3-1.8,0.8c-0.6,0.5-1.3,1.4-2,2.5c-0.7,1-1.2,2-1.5,3C449.7,597.3,449.5,598.2,449.5,598.9z"
		/>
	<path d="M469.7,592.2l1.5-2.4l2.3-0.2c-1.1,2-2.2,3.9-3.2,5.8c-1,1.9-1.9,3.7-2.7,5.5c1.5-1.1,3.5-3,6-5.8c0.1,0,0.1,0,0.1,0.1
		c0,0,0,0.1,0,0.1c0,0.4-0.7,1.3-2,2.7c-1.4,1.4-2.9,2.7-4.7,3.9c-1.8,3.8-3.6,6.7-5.2,8.7c-1.7,2-3.1,3.1-4.4,3.1
		c-0.6,0-1.1-0.2-1.4-0.5c-0.3-0.3-0.5-0.8-0.5-1.5c0-1.3,0.8-2.7,2.3-4.3c1.5-1.5,4-3.5,7.6-5.7l1.9-4.4c-1.1,1.4-2,2.3-2.8,3
		c-0.8,0.6-1.5,0.9-2.2,0.9c-0.7,0-1.2-0.4-1.6-1.1c-0.4-0.7-0.6-1.7-0.6-3c0-0.3,0-0.6,0.1-0.9c0-0.3,0.1-0.6,0.2-0.9
		c-0.1,0.3-0.3,0.4-0.4,0.6c-0.1,0.1-0.2,0.2-0.3,0.2c-0.1,0-0.1,0-0.2,0c0,0,0-0.1,0-0.1c0-0.1,0.2-0.4,0.5-0.8
		c0.3-0.4,0.7-0.9,1.3-1.5c1.2-1.3,2.3-2.2,3.5-2.9c1.2-0.7,2.2-1,3.2-1c0.6,0,1.1,0.2,1.4,0.5c0.4,0.3,0.5,0.8,0.5,1.4
		c0,0.1,0,0.3,0,0.4C469.7,591.8,469.7,592,469.7,592.2z M465,602.4c-2.7,1.7-4.8,3.4-6.3,5c-1.5,1.6-2.2,3-2.2,4.2
		c0,0.4,0.1,0.8,0.3,1c0.2,0.2,0.4,0.3,0.8,0.3c0.9,0,2-0.8,3.1-2.5C461.8,608.9,463.3,606.2,465,602.4z M461.7,599
		c0,0.4,0.1,0.7,0.2,0.9c0.2,0.2,0.4,0.3,0.7,0.3c0.4,0,0.9-0.2,1.5-0.7c0.6-0.4,1.2-1.1,1.9-1.9c1-1.2,1.8-2.4,2.3-3.5
		c0.5-1.1,0.8-2.1,0.8-3c0-0.4-0.1-0.7-0.4-0.9c-0.2-0.2-0.5-0.4-0.9-0.4c-0.6,0-1.3,0.3-2,0.9c-0.7,0.6-1.4,1.4-2.1,2.4
		c-0.7,1-1.2,2.1-1.6,3.1C461.9,597.5,461.7,598.3,461.7,599z"/>
	<path d="M481.7,597.1c0,0,0.1,0,0.2,0c0.2,0.1,0.3,0.1,0.4,0.1c0.5,0,1-0.2,1.5-0.5c0.5-0.3,1.1-0.8,1.5-1.3l0.5-0.6
		c0,0,0.1-0.1,0.1-0.1c0.1,0,0.1,0,0.2,0c0,0,0.1,0,0.1,0.1c0,0,0,0.1,0,0.2c0,0.1,0,0.1,0,0.1c0,0,0,0,0,0.1l-0.4,0.5
		c-0.5,0.7-1.1,1.2-1.7,1.6c-0.7,0.4-1.3,0.5-2,0.5c-0.2,0-0.4,0-0.5,0c-0.1,0-0.2,0-0.3,0c-0.9,1-1.7,1.8-2.6,2.4
		c-0.9,0.6-1.6,0.8-2.3,0.8c-0.8,0-1.4-0.4-1.8-1.1c-0.4-0.7-0.6-1.8-0.6-3.1c0-0.3,0-0.5,0.1-0.8c0-0.3,0.1-0.6,0.2-1
		c-0.2,0.3-0.4,0.5-0.5,0.6c-0.1,0.1-0.2,0.2-0.3,0.2c-0.1,0-0.1,0-0.1,0c0,0,0-0.1,0-0.1c0-0.1,0.1-0.2,0.3-0.5
		c0.2-0.3,0.6-0.8,1.2-1.6c1.1-1.3,2.2-2.3,3.4-3.1c1.1-0.7,2.2-1.1,3.1-1.1c0.8,0,1.4,0.3,1.9,0.8c0.5,0.5,0.7,1.2,0.7,2.1
		c0,0.7-0.2,1.4-0.5,2.2C482.9,595.2,482.4,596.1,481.7,597.1z M475.5,598.9c0,0.5,0.1,0.8,0.3,1.1c0.2,0.2,0.5,0.4,0.9,0.4
		c0.4,0,0.9-0.2,1.6-0.7c0.6-0.4,1.3-1,1.9-1.7c0.8-0.9,1.4-2,1.9-3c0.5-1.1,0.7-2,0.7-2.9c0-0.6-0.1-1.1-0.4-1.5
		c-0.2-0.4-0.6-0.5-1-0.5c-0.6,0-1.1,0.3-1.8,0.8c-0.6,0.5-1.3,1.4-2,2.5c-0.7,1-1.2,2-1.5,3C475.7,597.3,475.5,598.2,475.5,598.9z"
		/>
	<path d="M496.6,592c-0.7,0.7-1.4,1.6-2.1,2.5c-0.7,0.9-1.2,1.4-1.3,1.4c0,0-0.1,0-0.1,0c0,0,0,0,0-0.1c0-0.3,0.7-1.2,2.2-2.8
		c1.4-1.6,2.5-2.9,3.1-4l1.6-2.6h-1.8l0.3-0.6h1.8l2.3-3.9l2.4-0.2l-2.4,4.1h4.3l-0.3,0.6h-4.3l-5.5,9.7c-0.6,1-1,1.9-1.3,2.5
		c-0.3,0.6-0.4,1.1-0.4,1.3c0,0.2,0.1,0.4,0.2,0.5c0.1,0.2,0.3,0.2,0.4,0.2c0.4,0,1-0.2,1.6-0.8c0.6-0.5,1.5-1.4,2.7-2.8
		c0.3-0.3,0.6-0.7,0.9-1.1c0.4-0.5,0.7-0.8,0.8-0.8c0.1,0,0.1,0,0.2,0.1c0,0,0.1,0.1,0.1,0.1c0,0.1-0.1,0.3-0.3,0.6
		c-0.2,0.3-0.7,0.8-1.4,1.6c-1.2,1.4-2.2,2.3-2.8,2.8c-0.6,0.5-1.2,0.7-1.7,0.7c-0.6,0-1.1-0.2-1.5-0.7c-0.4-0.5-0.6-1.1-0.6-1.9
		c0-1,0.9-2.9,2.6-5.8C496.4,592.4,496.5,592.1,496.6,592z"/>
	<path d="M512.3,595.4c-1.4,1.7-2.6,3-3.7,3.9s-1.9,1.3-2.6,1.3c-0.4,0-0.8-0.2-1.1-0.7c-0.3-0.5-0.5-1-0.5-1.7
		c0-1.2,0.6-2.7,1.8-4.4c0.1-0.1,0.1-0.2,0.2-0.3c0.5-0.8,0.9-1.4,1.1-1.9c0.2-0.5,0.3-0.8,0.3-1.1c0-0.2,0-0.3-0.1-0.4
		c-0.1-0.1-0.2-0.1-0.4-0.1c-0.4,0-0.9,0.3-1.5,0.9c-0.6,0.6-1.6,1.6-2.8,3c-0.2,0.3-0.5,0.6-0.9,1.1c-0.4,0.6-0.7,0.8-0.9,0.8
		c0,0-0.1,0-0.1,0c0,0-0.1-0.1-0.1-0.1c0-0.1,0.1-0.2,0.2-0.4c0.1-0.2,0.3-0.5,0.7-0.9l1.2-1.4c1.3-1.5,2.2-2.5,2.8-2.9
		c0.6-0.4,1.1-0.7,1.7-0.7c0.5,0,0.9,0.2,1.2,0.6c0.3,0.4,0.4,0.9,0.4,1.6c0,0.5-0.1,1-0.3,1.6c-0.2,0.5-0.6,1.3-1.2,2.3l-0.2,0.4
		c-1.2,2-1.8,3.2-1.8,3.6c0,0.2,0.1,0.4,0.2,0.6c0.1,0.2,0.3,0.2,0.4,0.2c0.7,0,2-1,3.8-3c1.8-2,3.4-4.5,5-7.4l2.3-0.2
		c-1.1,2-2.2,3.9-3.2,5.8c-1,1.9-1.9,3.7-2.7,5.5c1.5-1.1,2.9-2.3,4.1-3.7c1.2-1.4,1.9-2.1,1.9-2.1c0,0,0.1,0,0.1,0.1
		c0,0,0.1,0.1,0.1,0.1c0,0.4-0.7,1.3-2,2.7c-1.4,1.4-2.9,2.7-4.7,3.9c-1.8,3.8-3.6,6.7-5.2,8.7c-1.7,2-3.1,3.1-4.4,3.1
		c-0.6,0-1.1-0.2-1.4-0.5c-0.3-0.3-0.5-0.8-0.5-1.5c0-1.3,0.8-2.7,2.3-4.3c1.5-1.5,4.1-3.5,7.6-5.7L512.3,595.4z M508.9,602.4
		c-2.7,1.7-4.8,3.4-6.3,5c-1.5,1.6-2.2,3-2.2,4.2c0,0.4,0.1,0.8,0.3,1c0.2,0.2,0.4,0.3,0.8,0.3c0.9,0,1.9-0.8,3-2.3
		C505.6,609.2,507,606.5,508.9,602.4z"/>
	<path d="M512.7,611.2l-2.4,0.3l10.8-20l-3,3.5c-0.2,0.2-0.4,0.4-0.5,0.6c-0.2,0.1-0.3,0.2-0.3,0.2c-0.1,0-0.1,0-0.2,0
		c0,0,0-0.1,0-0.1c0-0.1,0.9-1.1,2.6-3.2c1.8-2.1,3.4-4.4,4.8-7l2.2-3.7l2.2-0.2l-7.9,14.1c2-2.4,3.5-4.1,4.5-5
		c1-0.9,1.7-1.3,2.3-1.3c0.4,0,0.8,0.2,1,0.6c0.3,0.4,0.4,0.8,0.4,1.4c0,1-0.6,2.4-1.8,4.2c-0.2,0.3-0.3,0.5-0.5,0.7
		c-0.7,1-1.1,1.7-1.3,2.2c-0.2,0.5-0.4,0.9-0.4,1.2c0,0.2,0,0.4,0.1,0.5c0.1,0.1,0.2,0.2,0.5,0.2c0.3,0,0.8-0.3,1.5-0.9
		c0.7-0.6,1.5-1.4,2.5-2.6c0.3-0.3,0.6-0.7,1-1.2c0.4-0.5,0.6-0.7,0.7-0.7c0.1,0,0.1,0,0.1,0.1c0,0,0.1,0.1,0.1,0.1
		c0,0.1-0.1,0.3-0.3,0.6c-0.2,0.3-0.7,0.9-1.5,1.7c-1,1.1-1.9,2-2.6,2.6c-0.7,0.6-1.2,0.8-1.6,0.8c-0.5,0-1-0.3-1.3-0.8
		c-0.3-0.5-0.5-1.2-0.5-2.1c0-0.6,0.1-1.3,0.4-1.9c0.3-0.7,0.9-1.7,1.9-3c0.1-0.2,0.3-0.4,0.6-0.8c0.7-1,1.1-1.6,1.1-1.9
		c0-0.2-0.1-0.3-0.1-0.4c-0.1-0.1-0.2-0.1-0.3-0.1c-0.7,0-2.1,1.2-4.2,3.6c-2.1,2.4-4,5.2-5.8,8.6L512.7,611.2z"/>
	<path d="M532,595c-0.2,0.3-0.4,0.5-0.5,0.6c-0.1,0.1-0.2,0.2-0.3,0.2c-0.1,0-0.1,0-0.1,0c0,0,0-0.1,0-0.1c0-0.1,0.1-0.3,0.4-0.7
		c0.3-0.3,0.6-0.8,1.1-1.3c1.1-1.4,2.3-2.4,3.4-3.1c1.2-0.7,2.3-1.1,3.3-1.1c0.6,0,1.1,0.2,1.5,0.5c0.4,0.3,0.6,0.8,0.6,1.4
		c0,1.1-0.7,2.2-2,3.2c-1.4,1-3.2,1.8-5.4,2.4c-0.1,0.5-0.1,0.8-0.1,1.1c0,0.2,0,0.4,0,0.6c0,0.6,0.1,1.1,0.4,1.4
		c0.3,0.3,0.6,0.5,1.1,0.5c0.6,0,1.3-0.2,2-0.7c0.7-0.5,1.6-1.2,2.6-2.3c0.4-0.4,0.8-1,1.3-1.5c0.5-0.6,0.7-0.9,0.8-0.9
		c0.1,0,0.1,0,0.2,0.1c0,0,0.1,0.1,0.1,0.1c0,0.1-0.1,0.3-0.3,0.6c-0.2,0.3-0.7,0.9-1.5,1.8c-1.1,1.2-2,2-2.9,2.5
		c-0.8,0.5-1.6,0.8-2.4,0.8c-0.9,0-1.7-0.4-2.3-1.2c-0.6-0.8-0.9-1.9-0.9-3.1c0-0.3,0-0.5,0.1-0.8C531.9,595.6,531.9,595.3,532,595z
		 M534,596.3c1.7-0.4,3.1-1.2,4.3-2.3c1.2-1.2,1.8-2.2,1.8-3.3c0-0.2-0.1-0.4-0.2-0.6c-0.1-0.2-0.3-0.2-0.5-0.2
		c-0.8,0-1.8,0.6-2.8,1.9C535.5,593,534.6,594.5,534,596.3z"/>
</g>
</svg>
