<svg xmlns="http://www.w3.org/2000/svg" viewBox="0 0 84 84"><title>JAL_iconAll_svg</title><path d="M27.17 41.17h2.1V37h1.4a11.49 11.49 0 0 0 2.18-.16 3 3 0 0 0 2-1.6 3.76 3.76 0 0 0 .35-1.7 3.54 3.54 0 0 0-.6-2.14 2.73 2.73 0 0 0-1.5-1.07 11.67 11.67 0 0 0-2.53-.19h-3.4zm2.1-9.11h1a10.16 10.16 0 0 1 1.51.07A1.42 1.42 0 0 1 33 33.6a1.51 1.51 0 0 1-.24.85 1.36 1.36 0 0 1-.66.54 5.2 5.2 0 0 1-1.66.17H29.3zM44 40.94a3.59 3.59 0 0 0 1.47-.88 4.94 4.94 0 0 0 1.12-1.89 7.57 7.57 0 0 0 .32-2.33 8.55 8.55 0 0 0-.33-2.67 4.85 4.85 0 0 0-1-1.78 3.46 3.46 0 0 0-1.57-1 7.13 7.13 0 0 0-2-.21h-3.84v11h4a6.2 6.2 0 0 0 1.83-.24zm-3.71-1.62v-7.26h.94a9 9 0 0 1 1.72.1 1.93 1.93 0 0 1 1 .51 2.5 2.5 0 0 1 .6 1.06 6.89 6.89 0 0 1 .21 2 7.49 7.49 0 0 1-.21 2 2.34 2.34 0 0 1-.55 1.06 2 2 0 0 1-.85.46 5.44 5.44 0 0 1-1.27.1zM52.18 36.51h4.44v-1.86h-4.45v-2.48h5v-2h-7v11h2.01v-4.66zM26.17 55.17h32v3h-32zM26.17 48.17h32v3h-32z" fill="#888d94"/><path d="M31.17 4.17l-20 20v56h62v-76zm39 73h-56v-53h10a7 7 0 0 0 7-7v-10h39z" fill="#888d94"/></svg>